<?xml version="1.0" encoding="utf-8"?>
<svg version="1.1"
  xmlns:xlink="http://www.w3.org/1999/xlink" width="20px" height="12px"
  xmlns="http://www.w3.org/2000/svg">
  <g transform="matrix(1 0 0 1 -544 -446 )">
    <path d="M 3.83333333333333 8  C 3.94444444444444 8  4 8.05555555555556  4 8.16666666666667  L 4 9.16666666666667  C 4 9.27777777777778  3.94444444444444 9.33333333333333  3.83333333333333 9.33333333333333  L 2.83333333333333 9.33333333333333  C 2.72222222222222 9.33333333333333  2.66666666666667 9.27777777777778  2.66666666666667 9.16666666666667  L 2.66666666666667 8.16666666666667  C 2.66666666666667 8.05555555555556  2.72222222222222 8  2.83333333333333 8  L 3.83333333333333 8  Z M 5.16666666666667 5.33333333333333  C 5.27777777777778 5.33333333333333  5.33333333333333 5.38888888888889  5.33333333333333 5.5  L 5.33333333333333 6.5  C 5.33333333333333 6.61111111111111  5.27777777777778 6.66666666666667  5.16666666666667 6.66666666666667  L 2.83333333333333 6.66666666666667  C 2.72222222222222 6.66666666666667  2.66666666666667 6.61111111111111  2.66666666666667 6.5  L 2.66666666666667 5.5  C 2.66666666666667 5.38888888888889  2.72222222222222 5.33333333333333  2.83333333333333 5.33333333333333  L 5.16666666666667 5.33333333333333  Z M 3.83333333333333 2.66666666666667  C 3.94444444444444 2.66666666666667  4 2.72222222222222  4 2.83333333333333  L 4 3.83333333333333  C 4 3.94444444444444  3.94444444444444 4  3.83333333333333 4  L 2.83333333333333 4  C 2.72222222222222 4  2.66666666666667 3.94444444444444  2.66666666666667 3.83333333333333  L 2.66666666666667 2.83333333333333  C 2.66666666666667 2.72222222222222  2.72222222222222 2.66666666666667  2.83333333333333 2.66666666666667  L 3.83333333333333 2.66666666666667  Z M 14.5 8  C 14.6111111111111 8  14.6666666666667 8.05555555555556  14.6666666666667 8.16666666666667  L 14.6666666666667 9.16666666666667  C 14.6666666666667 9.27777777777778  14.6111111111111 9.33333333333333  14.5 9.33333333333333  L 5.5 9.33333333333333  C 5.38888888888889 9.33333333333333  5.33333333333333 9.27777777777778  5.33333333333333 9.16666666666667  L 5.33333333333333 8.16666666666667  C 5.33333333333333 8.05555555555556  5.38888888888889 8  5.5 8  L 14.5 8  Z M 7.83333333333333 5.33333333333333  C 7.94444444444444 5.33333333333333  8 5.38888888888889  8 5.5  L 8 6.5  C 8 6.61111111111111  7.94444444444444 6.66666666666667  7.83333333333333 6.66666666666667  L 6.83333333333333 6.66666666666667  C 6.72222222222222 6.66666666666667  6.66666666666667 6.61111111111111  6.66666666666667 6.5  L 6.66666666666667 5.5  C 6.66666666666667 5.38888888888889  6.72222222222222 5.33333333333333  6.83333333333333 5.33333333333333  L 7.83333333333333 5.33333333333333  Z M 6.5 2.66666666666667  C 6.61111111111111 2.66666666666667  6.66666666666667 2.72222222222222  6.66666666666667 2.83333333333333  L 6.66666666666667 3.83333333333333  C 6.66666666666667 3.94444444444444  6.61111111111111 4  6.5 4  L 5.5 4  C 5.38888888888889 4  5.33333333333333 3.94444444444444  5.33333333333333 3.83333333333333  L 5.33333333333333 2.83333333333333  C 5.33333333333333 2.72222222222222  5.38888888888889 2.66666666666667  5.5 2.66666666666667  L 6.5 2.66666666666667  Z M 10.5 5.33333333333333  C 10.6111111111111 5.33333333333333  10.6666666666667 5.38888888888889  10.6666666666667 5.5  L 10.6666666666667 6.5  C 10.6666666666667 6.61111111111111  10.6111111111111 6.66666666666667  10.5 6.66666666666667  L 9.5 6.66666666666667  C 9.38888888888889 6.66666666666667  9.33333333333333 6.61111111111111  9.33333333333333 6.5  L 9.33333333333333 5.5  C 9.33333333333333 5.38888888888889  9.38888888888889 5.33333333333333  9.5 5.33333333333333  L 10.5 5.33333333333333  Z M 9.16666666666667 2.66666666666667  C 9.27777777777778 2.66666666666667  9.33333333333333 2.72222222222222  9.33333333333333 2.83333333333333  L 9.33333333333333 3.83333333333333  C 9.33333333333333 3.94444444444444  9.27777777777778 4  9.16666666666667 4  L 8.16666666666667 4  C 8.05555555555556 4  8 3.94444444444444  8 3.83333333333333  L 8 2.83333333333333  C 8 2.72222222222222  8.05555555555556 2.66666666666667  8.16666666666667 2.66666666666667  L 9.16666666666667 2.66666666666667  Z M 13.1666666666667 5.33333333333333  C 13.2777777777778 5.33333333333333  13.3333333333333 5.38888888888889  13.3333333333333 5.5  L 13.3333333333333 6.5  C 13.3333333333333 6.61111111111111  13.2777777777778 6.66666666666667  13.1666666666667 6.66666666666667  L 12.1666666666667 6.66666666666667  C 12.0555555555556 6.66666666666667  12 6.61111111111111  12 6.5  L 12 5.5  C 12 5.38888888888889  12.0555555555556 5.33333333333333  12.1666666666667 5.33333333333333  L 13.1666666666667 5.33333333333333  Z M 17.1666666666667 8  C 17.2777777777778 8  17.3333333333333 8.05555555555556  17.3333333333333 8.16666666666667  L 17.3333333333333 9.16666666666667  C 17.3333333333333 9.27777777777778  17.2777777777778 9.33333333333333  17.1666666666667 9.33333333333333  L 16.1666666666667 9.33333333333333  C 16.0555555555556 9.33333333333333  16 9.27777777777778  16 9.16666666666667  L 16 8.16666666666667  C 16 8.05555555555556  16.0555555555556 8  16.1666666666667 8  L 17.1666666666667 8  Z M 11.8333333333333 2.66666666666667  C 11.9444444444444 2.66666666666667  12 2.72222222222222  12 2.83333333333333  L 12 3.83333333333333  C 12 3.94444444444444  11.9444444444444 4  11.8333333333333 4  L 10.8333333333333 4  C 10.7222222222222 4  10.6666666666667 3.94444444444444  10.6666666666667 3.83333333333333  L 10.6666666666667 2.83333333333333  C 10.6666666666667 2.72222222222222  10.7222222222222 2.66666666666667  10.8333333333333 2.66666666666667  L 11.8333333333333 2.66666666666667  Z M 14.5 2.66666666666667  C 14.6111111111111 2.66666666666667  14.6666666666667 2.72222222222222  14.6666666666667 2.83333333333333  L 14.6666666666667 3.83333333333333  C 14.6666666666667 3.94444444444444  14.6111111111111 4  14.5 4  L 13.5 4  C 13.3888888888889 4  13.3333333333333 3.94444444444444  13.3333333333333 3.83333333333333  L 13.3333333333333 2.83333333333333  C 13.3333333333333 2.72222222222222  13.3888888888889 2.66666666666667  13.5 2.66666666666667  L 14.5 2.66666666666667  Z M 17.1666666666667 2.66666666666667  C 17.2777777777778 2.66666666666667  17.3333333333333 2.72222222222222  17.3333333333333 2.83333333333333  L 17.3333333333333 6.5  C 17.3333333333333 6.61111111111111  17.2777777777778 6.66666666666667  17.1666666666667 6.66666666666667  L 14.8333333333333 6.66666666666667  C 14.7222222222222 6.66666666666667  14.6666666666667 6.61111111111111  14.6666666666667 6.5  L 14.6666666666667 5.5  C 14.6666666666667 5.38888888888889  14.7222222222222 5.33333333333333  14.8333333333333 5.33333333333333  L 16 5.33333333333333  L 16 2.83333333333333  C 16 2.72222222222222  16.0555555555556 2.66666666666667  16.1666666666667 2.66666666666667  L 17.1666666666667 2.66666666666667  Z M 1.33333333333333 10.6666666666667  L 18.6666666666667 10.6666666666667  L 18.6666666666667 1.33333333333333  L 1.33333333333333 1.33333333333333  L 1.33333333333333 10.6666666666667  Z M 19.609375 0.390625  C 19.8697916666667 0.651041666666667  20 0.965277777777776  20 1.33333333333333  L 20 10.6666666666667  C 20 11.0347222222222  19.8697916666667 11.3489583333333  19.609375 11.609375  C 19.3489583333333 11.8697916666667  19.0347222222222 12  18.6666666666667 12  L 1.33333333333333 12  C 0.965277777777778 12  0.651041666666667 11.8697916666667  0.390625 11.609375  C 0.130208333333333 11.3489583333333  0 11.0347222222222  0 10.6666666666667  L 0 1.33333333333333  C 0 0.965277777777776  0.130208333333333 0.651041666666667  0.390625 0.390625  C 0.651041666666667 0.130208333333333  0.965277777777778 0  1.33333333333333 0  L 18.6666666666667 0  C 19.0347222222222 0  19.3489583333333 0.130208333333333  19.609375 0.390625  Z " fill-rule="nonzero" fill="#b1b1b1" stroke="none" transform="matrix(1 0 0 1 544 446 )" />
  </g>
</svg>